<?xml version="1.0" encoding="utf-8"?>
<!-- Generator: Adobe Illustrator 24.3.0, SVG Export Plug-In . SVG Version: 6.00 Build 0)  -->
<svg version="1.1" xmlns="http://www.w3.org/2000/svg" xmlns:xlink="http://www.w3.org/1999/xlink" x="0px" y="0px"
	 viewBox="0 0 722.5 699.6" style="enable-background:new 0 0 722.5 699.6;" xml:space="preserve">
<style type="text/css">
	.st0{fill:url(#SVGID_1_);}
	.st1{fill:url(#SVGID_2_);}
	.st2{fill:url(#SVGID_3_);}
	.st3{fill:url(#SVGID_4_);}
	.st4{fill:url(#SVGID_5_);}
	.st5{fill:url(#SVGID_6_);}
	.st6{fill:url(#SVGID_7_);}
	.st7{fill:url(#SVGID_8_);}
	.st8{fill:url(#SVGID_9_);}
	.st9{fill:url(#SVGID_10_);}
	.st10{fill:url(#SVGID_11_);}
	.st11{fill:url(#SVGID_12_);}
	.st12{fill:url(#SVGID_13_);}
	.st13{fill:url(#SVGID_14_);}
	.st14{fill:url(#SVGID_15_);}
	.st15{fill:url(#SVGID_16_);}
	.st16{fill:url(#SVGID_17_);}
	.st17{fill:url(#SVGID_18_);}
	.st18{fill:url(#SVGID_19_);}
	.st19{fill:url(#SVGID_20_);}
	.st20{fill:url(#SVGID_21_);}
	.st21{fill:url(#SVGID_22_);}
	.st22{fill:url(#SVGID_23_);}
	.st23{fill:url(#SVGID_24_);}
	.st24{fill:url(#SVGID_25_);}
	.st25{fill:#216B97;}
</style>
<g id="Bee">
	<g id="bee">
		<g id="Color_3_">
			<linearGradient id="SVGID_1_" gradientUnits="userSpaceOnUse" x1="353.9726" y1="337.3947" x2="650.5836" y2="414.5538">
				<stop  offset="0" style="stop-color:#35B6B2"/>
				<stop  offset="0.4202" style="stop-color:#008ABC"/>
				<stop  offset="0.875" style="stop-color:#216B97"/>
			</linearGradient>
			<polygon class="st0" points="351.7,314.2 557.3,332.9 504.4,391.6 408.5,409 			"/>
			<linearGradient id="SVGID_2_" gradientUnits="userSpaceOnUse" x1="618.2021" y1="133.9401" x2="722.5239" y2="133.9401">
				<stop  offset="0" style="stop-color:#00ADBC"/>
				<stop  offset="0.4202" style="stop-color:#008ABC"/>
				<stop  offset="0.875" style="stop-color:#216B97"/>
			</linearGradient>
			<polygon class="st1" points="618.2,139.3 722.5,154.2 645.9,113.7 			"/>
			<linearGradient id="SVGID_3_" gradientUnits="userSpaceOnUse" x1="609.6793" y1="110.8462" x2="539.9779" y2="261.7609">
				<stop  offset="0" style="stop-color:#00ADBC"/>
				<stop  offset="0.4202" style="stop-color:#008ABC"/>
				<stop  offset="0.875" style="stop-color:#216B97"/>
			</linearGradient>
			<polygon class="st2" points="517.7,237.2 645.9,113.7 581.4,134.3 513.3,238.3 			"/>
			<linearGradient id="SVGID_4_" gradientUnits="userSpaceOnUse" x1="569.1968" y1="260.2626" x2="636.0799" y2="359.7974">
				<stop  offset="0" style="stop-color:#00ADBC"/>
				<stop  offset="0.4202" style="stop-color:#008ABC"/>
				<stop  offset="0.875" style="stop-color:#216B97"/>
			</linearGradient>
			<polygon class="st3" points="580.1,335.8 579.1,215.7 650.9,349.8 			"/>
			<linearGradient id="SVGID_5_" gradientUnits="userSpaceOnUse" x1="567.8301" y1="265.6891" x2="692.3387" y2="310.8154">
				<stop  offset="0" style="stop-color:#35B6B2"/>
				<stop  offset="0.4202" style="stop-color:#008ABC"/>
				<stop  offset="0.875" style="stop-color:#216B97"/>
			</linearGradient>
			<polyline class="st4" points="678.3,321.2 650.9,349.8 579.1,215.7 686.8,312.3 678.3,321.2 			"/>
			<linearGradient id="SVGID_6_" gradientUnits="userSpaceOnUse" x1="521.8856" y1="224.6148" x2="522.9764" y2="361.3312">
				<stop  offset="0" style="stop-color:#35B6B2"/>
				<stop  offset="0.4202" style="stop-color:#008ABC"/>
				<stop  offset="0.875" style="stop-color:#216B97"/>
			</linearGradient>
			<polygon class="st5" points="464.7,254.2 555.9,334.1 580.2,335.8 579.1,215.7 			"/>
			<linearGradient id="SVGID_7_" gradientUnits="userSpaceOnUse" x1="155.0451" y1="113.8092" x2="705.2385" y2="328.398">
				<stop  offset="0" style="stop-color:#35B6B2"/>
				<stop  offset="0.3489" style="stop-color:#00ADBC"/>
				<stop  offset="0.7745" style="stop-color:#216B97"/>
			</linearGradient>
			<polygon class="st6" points="180.4,0 351.7,314.2 555.9,334.1 			"/>
			<linearGradient id="SVGID_8_" gradientUnits="userSpaceOnUse" x1="333.1788" y1="349.2432" x2="405.5462" y2="408.639">
				<stop  offset="0" style="stop-color:#35B6B2"/>
				<stop  offset="0.4202" style="stop-color:#008ABC"/>
				<stop  offset="0.875" style="stop-color:#216B97"/>
			</linearGradient>
			<polygon class="st7" points="351.7,314.2 408.5,409 308.1,378.9 			"/>
			<linearGradient id="SVGID_9_" gradientUnits="userSpaceOnUse" x1="266.6721" y1="451.8015" x2="465.2537" y2="451.8015">
				<stop  offset="0" style="stop-color:#35B6B2"/>
				<stop  offset="0.4202" style="stop-color:#008ABC"/>
				<stop  offset="0.875" style="stop-color:#216B97"/>
			</linearGradient>
			<polygon class="st8" points="308.1,378.9 408.5,409 373.9,524.7 209.9,404.9 			"/>
			<linearGradient id="SVGID_10_" gradientUnits="userSpaceOnUse" x1="197.2258" y1="492.8437" x2="407.3089" y2="492.8437">
				<stop  offset="0" style="stop-color:#35B6B2"/>
				<stop  offset="0.4202" style="stop-color:#008ABC"/>
				<stop  offset="0.875" style="stop-color:#216B97"/>
			</linearGradient>
			<polygon class="st9" points="209.9,404.9 126.9,580.8 373.9,524.7 			"/>
			<linearGradient id="SVGID_11_" gradientUnits="userSpaceOnUse" x1="176.3395" y1="681.0624" x2="293.4098" y2="478.2908">
				<stop  offset="0" style="stop-color:#35B6B2"/>
				<stop  offset="0.4202" style="stop-color:#008ABC"/>
				<stop  offset="0.875" style="stop-color:#216B97"/>
			</linearGradient>
			<polygon class="st10" points="126.9,580.8 148.7,665.1 186.2,657.6 373.9,524.7 			"/>
			<linearGradient id="SVGID_12_" gradientUnits="userSpaceOnUse" x1="158.2731" y1="689.3576" x2="179.0113" y2="653.438">
				<stop  offset="0" style="stop-color:#35B6B2"/>
				<stop  offset="1" style="stop-color:#008ABC"/>
			</linearGradient>
			<polygon class="st11" points="148.7,665.1 176,699.6 186.2,657.6 			"/>
			<linearGradient id="SVGID_13_" gradientUnits="userSpaceOnUse" x1="118.7099" y1="29.4932" x2="300.2419" y2="343.9158">
				<stop  offset="0.1613" style="stop-color:#35B6B2"/>
				<stop  offset="0.4202" style="stop-color:#00ADBC"/>
				<stop  offset="0.875" style="stop-color:#216B97"/>
			</linearGradient>
			<polygon class="st12" points="180.4,0 351.7,314.2 112.9,155.8 75.2,54.6 			"/>
			<linearGradient id="SVGID_14_" gradientUnits="userSpaceOnUse" x1="4.8775" y1="213.8515" x2="388.1147" y2="301.7625">
				<stop  offset="0" style="stop-color:#35B6B2"/>
				<stop  offset="0.4202" style="stop-color:#00ADBC"/>
				<stop  offset="0.875" style="stop-color:#216B97"/>
			</linearGradient>
			<polygon class="st13" points="112.9,155.8 0,233.1 82.2,314.4 351.7,314.2 			"/>
		</g>
	</g>
	<g id="Sshade">
		<linearGradient id="SVGID_15_" gradientUnits="userSpaceOnUse" x1="211.5236" y1="234.8984" x2="218.5183" y2="221.1704">
			<stop  offset="0" style="stop-color:#21211F;stop-opacity:0"/>
			<stop  offset="1" style="stop-color:#21211F;stop-opacity:0.3"/>
		</linearGradient>
		<polygon class="st14" points="341.4,307.4 112.9,155.8 70,185.2 		"/>
		<linearGradient id="SVGID_16_" gradientUnits="userSpaceOnUse" x1="342.4607" y1="401.6585" x2="348.8376" y2="389.1431">
			<stop  offset="0" style="stop-color:#21211F;stop-opacity:0"/>
			<stop  offset="1" style="stop-color:#21211F;stop-opacity:0.36"/>
		</linearGradient>
		<polygon class="st15" points="308.1,378.9 408.5,409 401.4,432.5 274.9,387.6 		"/>
		<linearGradient id="SVGID_17_" gradientUnits="userSpaceOnUse" x1="252.2477" y1="573.6442" x2="242.6918" y2="551.132">
			<stop  offset="0" style="stop-color:#21211F;stop-opacity:0"/>
			<stop  offset="1" style="stop-color:#21211F;stop-opacity:0.3"/>
		</linearGradient>
		<polygon class="st16" points="126.9,580.8 148.7,665.1 186.2,657.6 373.9,524.7 		"/>
		<linearGradient id="SVGID_18_" gradientUnits="userSpaceOnUse" x1="278.2917" y1="476.1131" x2="297.5528" y2="459.9511">
			<stop  offset="0" style="stop-color:#21211F;stop-opacity:0"/>
			<stop  offset="1" style="stop-color:#21211F;stop-opacity:0.3"/>
		</linearGradient>
		<polygon class="st17" points="209.7,404.9 373.9,524.7 313.6,538.3 199.1,432.4 		"/>
		<linearGradient id="SVGID_19_" gradientUnits="userSpaceOnUse" x1="252.2447" y1="153.9107" x2="266.6992" y2="143.7896">
			<stop  offset="0" style="stop-color:#21211F;stop-opacity:0"/>
			<stop  offset="1" style="stop-color:#21211F;stop-opacity:0.3"/>
		</linearGradient>
		<polygon class="st18" points="180.4,0 344.9,302.1 133.4,24.1 		"/>
		<linearGradient id="SVGID_20_" gradientUnits="userSpaceOnUse" x1="620.6865" y1="278.9265" x2="613.4164" y2="283.8302">
			<stop  offset="0" style="stop-color:#21211F;stop-opacity:0"/>
			<stop  offset="1" style="stop-color:#21211F;stop-opacity:0.3"/>
		</linearGradient>
		<polygon class="st19" points="579.1,215.7 650.9,349.8 669.3,330.6 		"/>
		<linearGradient id="SVGID_21_" gradientUnits="userSpaceOnUse" x1="586.8889" y1="278.4374" x2="579.3563" y2="279.2291">
			<stop  offset="0" style="stop-color:#21211F;stop-opacity:0"/>
			<stop  offset="1" style="stop-color:#21211F;stop-opacity:0.4"/>
		</linearGradient>
		<polygon class="st20" points="579.1,215.7 580.2,335.8 603.2,340.3 		"/>
		<linearGradient id="SVGID_22_" gradientUnits="userSpaceOnUse" x1="170.2276" y1="666.1458" x2="166.7314" y2="660.09">
			<stop  offset="0" style="stop-color:#21211F;stop-opacity:0"/>
			<stop  offset="1" style="stop-color:#21211F;stop-opacity:0.3"/>
		</linearGradient>
		<polygon class="st21" points="148.7,665.1 161.7,681.5 186.2,657.6 		"/>
		<linearGradient id="SVGID_23_" gradientUnits="userSpaceOnUse" x1="370.0257" y1="367.084" x2="379.1806" y2="359.4021">
			<stop  offset="0" style="stop-color:#21211F;stop-opacity:0"/>
			<stop  offset="1" style="stop-color:#21211F;stop-opacity:0.4"/>
		</linearGradient>
		<polygon class="st22" points="351.7,314.2 406.2,405 331.1,344.7 		"/>
		<linearGradient id="SVGID_24_" gradientUnits="userSpaceOnUse" x1="453.7979" y1="335.503" x2="453.7979" y2="317.0293">
			<stop  offset="0" style="stop-color:#21211F;stop-opacity:0"/>
			<stop  offset="1" style="stop-color:#21211F;stop-opacity:0.5"/>
		</linearGradient>
		<polygon class="st23" points="351.7,314.2 555.9,334.1 370,344.7 		"/>
		<linearGradient id="SVGID_25_" gradientUnits="userSpaceOnUse" x1="634.6374" y1="127.9428" x2="629.3483" y2="124.3753">
			<stop  offset="0" style="stop-color:#21211F;stop-opacity:0"/>
			<stop  offset="1" style="stop-color:#21211F;stop-opacity:0.5"/>
		</linearGradient>
		<polygon class="st24" points="645.9,113.7 640.6,142.5 619.2,139.4 		"/>
	</g>
</g>
<g id="Text">
	<g>
		<g>
			<g>
				<g>
					<path class="st25" d="M866,451.1c-42.7,0-76.3-24.1-76.3-71.6v-70.2c0-47.9,33.9-72,75.7-72c21.8,0,43.8,7,61.8,20.3
						c1.7,1.2,1.7,2.6,0.6,4.4l-9.3,13.6c-1.2,1.7-2.9,1.7-4.9,0.6c-14.2-10.5-31.9-15.7-48.5-15.7c-32.8,0-50.8,19.2-50.8,48.8
						v69.9c0,29.6,18.3,48.7,51,48.7c18.9,0,38-6.1,53.4-18c1.5-1.5,3.2-1.2,4.4,0.9l9.6,13.4c1.2,2,1.2,3.5-0.9,4.9
						C913.3,444.4,889.2,451.1,866,451.1z"/>
					<path class="st25" d="M1009.3,451.1c-39.2,0-63.8-22.9-63.8-56.8v-41.8c0-33.9,24.7-57.7,63.8-57.7c39.5,0,63.8,23.8,63.8,57.7
						v41.8C1073.1,428.2,1048.8,451.1,1009.3,451.1z M1009.3,429.9c26.1,0,40-13.9,40-35.7v-41.8c0-22-13.9-36.3-40-36.3
						c-25.8,0-39.8,14.2-39.8,36.3v41.8C969.6,416,983.5,429.9,1009.3,429.9z"/>
					<path class="st25" d="M1235.9,294.7c35.4,0,60.1,20.6,60.1,59.2v90.8c0,2-1.2,3.2-3.2,3.2h-17.1c-2.3,0-3.5-1.2-3.5-3.2v-91.4
						c0-23.2-11.9-37.1-36.8-37.1c-12.2,0-23.2,3.8-31.9,9.9c3.5,7.5,5.5,17.1,5.5,27.6v91.1c0,2-1.2,3.2-3.2,3.2h-17.4
						c-2,0-3.2-1.2-3.2-3.2v-91.4c0-24.7-11.3-37.1-34.8-37.1c-11.9,0-21.2,2.3-29.3,5.2v123.3c0,2-1.2,3.2-3.5,3.2h-17.1
						c-2,0-3.2-1.2-3.2-3.2V310.1c0-1.7,0.6-3.2,2.6-4c15.4-7,32.2-11.3,49.9-11.3c17.7,0,31.3,5.2,41.5,14.2
						C1205.2,299.7,1218.5,294.7,1235.9,294.7z"/>
					<path class="st25" d="M1380.4,294.7c36.8,0,62.9,22.6,62.9,61.5v32.2c0,43.8-27,62.7-64.7,62.7c-18.6,0-39.5-3.7-56-10.1
						c-2-0.9-2.6-2-2.6-3.8V243c0-2,1.2-3.2,3.2-3.2h17.1c2.3,0,3.5,1.2,3.5,3.2v60.7C1354,298.5,1366.8,294.7,1380.4,294.7z
						 M1419.3,388.4v-32.2c0-27.9-14.8-40.3-40.9-40.3c-13.3,0-25.2,4-34.5,10.4v98.1c9,3.5,21.8,5.5,34.2,5.5
						C1403.9,429.9,1419.3,418.6,1419.3,388.4z"/>
					<path class="st25" d="M1590.1,380.9c0,2.3-1.2,3.5-3.2,3.5H1492v12.2c0,21.7,16.3,33.3,37.7,33.3c20,0,33.7-7.8,44.4-16.2
						c1.7-1.2,3.5-0.8,4.6,0.9l8.4,11c1.5,1.7,1.2,3.2-0.6,4.6c-14.5,12.2-33.1,20.9-57.4,20.9c-31.3,0-61.2-18-61.2-54.5v-44.1
						c0-39.7,29.6-57.7,61.5-57.7c31.6,0,60.6,18,60.6,57.7V380.9z M1529.4,316.2c-21.8,0-37.4,11.3-37.4,36.3v12.2h74.9v-12.2
						C1566.8,327.8,1550.6,316.2,1529.4,316.2z"/>
					<path class="st25" d="M1736.9,380.9c0,2.3-1.1,3.5-3.2,3.5h-94.9v12.2c0,21.7,16.2,33.3,37.7,33.3c20,0,33.7-7.8,44.4-16.2
						c1.7-1.2,3.5-0.8,4.6,0.9l8.4,11c1.4,1.7,1.2,3.2-0.6,4.6c-14.5,12.2-33.1,20.9-57.5,20.9c-31.3,0-61.2-18-61.2-54.5v-44.1
						c0-39.7,29.6-57.7,61.5-57.7c31.6,0,60.6,18,60.6,57.7V380.9z M1676.3,316.2c-21.7,0-37.4,11.3-37.4,36.3v12.2h74.9v-12.2
						C1713.7,327.8,1697.4,316.2,1676.3,316.2z"/>
					<path class="st25" d="M1764.4,447.9c-2,0-3.2-1.2-3.2-3.2V310.1c0-1.7,0.6-3.2,2.3-4c16.5-7,35.7-11.3,55.7-11.3
						c38.9,0,65.3,18.3,65.3,62.7v87.3c0,2-1.2,3.2-3.5,3.2h-17.1c-2,0-3.2-1.2-3.2-3.2V358c0-30.2-15.4-41.8-41.5-41.8
						c-12.2,0-25.2,2.3-34.2,5.2v123.3c0,2-1.2,3.2-3.5,3.2H1764.4z"/>
					<path class="st25" d="M1965.4,294.7c35.7,0,57.7,18.9,57.7,56.3v87c0,1.7-0.9,3.2-2.6,3.8c-13.6,4.9-34.2,9.3-56,9.3
						c-32.5,0-62.4-13-62.4-47.6c0-30.7,25.2-46.1,62.4-46.1c11.9,0,25,1.7,34.8,3.5v-9.3c0-23.5-9.6-35.4-34.8-35.4
						c-16.3,0-31,4.7-41.2,10.7c-1.7,1.2-3.2,0.9-4.3-0.9l-8.4-12.2c-0.9-1.7-1.2-2.9,0-4.1C1924.2,300.5,1943.1,294.7,1965.4,294.7
						z M1964.6,429.9c13,0,26.1-2.6,34.8-5.2v-43.5c-9.3-1.7-22.9-3.5-34.8-3.5c-26.4,0-38.6,9.9-38.6,25.8
						C1926,420.9,1942.2,429.9,1964.6,429.9z"/>
					<path class="st25" d="M2099.1,429.1c3.2,0,8.7-0.3,13.9-0.6c2.3,0,3.5,1.2,3.5,3.2V447c0,1.8-0.9,3.2-2.9,3.5
						c-5.2,0.3-11.9,0.6-15.7,0.6c-29,0-50.5-15.6-50.5-51.3V264.6c0-2.3,1.2-3.5,3.5-3.5h17.1c1.7,0,2.9,1.1,3.2,3.2l0,35.1h37.7
						c2,0,3.2,1.2,3.2,3.2v14.5c0,2.3-1.2,3.5-3.2,3.5h-37.7v78C2071.3,417.7,2081.1,429.1,2099.1,429.1z"/>
					<path class="st25" d="M2140.2,447.9c-2.3,0-3.5-1.2-3.5-3.2V301.4c0-2,1.2-3.5,3.5-3.5h17.1c2,0,3.2,1.4,3.2,3.5v143.3
						c0,2-1.2,3.2-3.2,3.2H2140.2z"/>
					<path class="st25" d="M2140.2,284.9c-2.3,0-3.5-1.2-3.5-3.3v-16.9c0-2.1,1.2-3.6,3.5-3.6h17.1c2,0,3.2,1.5,3.2,3.6v16.9
						c0,2.1-1.2,3.3-3.2,3.3H2140.2z"/>
					<path class="st25" d="M2248.7,451.1c-39.2,0-63.8-22.9-63.8-56.8v-41.8c0-33.9,24.7-57.7,63.8-57.7c39.5,0,63.8,23.8,63.8,57.7
						v41.8C2312.5,428.2,2288.2,451.1,2248.7,451.1z M2248.7,429.9c26.1,0,40.1-13.9,40.1-35.7v-41.8c0-22-13.9-36.3-40.1-36.3
						c-25.8,0-39.8,14.2-39.8,36.3v41.8C2208.9,416,2222.9,429.9,2248.7,429.9z"/>
					<path class="st25" d="M2339.8,447.9c-2,0-3.2-1.2-3.2-3.2V310.1c0-1.7,0.6-3.2,2.3-4c16.5-7,35.7-11.3,55.7-11.3
						c38.9,0,65.3,18.3,65.3,62.7v87.3c0,2-1.2,3.2-3.5,3.2h-17.1c-2,0-3.2-1.2-3.2-3.2V358c0-30.2-15.4-41.8-41.5-41.8
						c-12.2,0-25.2,2.3-34.2,5.2v123.3c0,2-1.1,3.2-3.5,3.2H2339.8z"/>
				</g>
			</g>
		</g>
	</g>
	<g id="Word_mark">
		<path class="st25" d="M823,640.1c-21.1,0-33.8-13.5-33.8-31.1v-26.2c0-17.6,12.7-31.1,33.8-31.1c9.9,0,18.5,3,26.5,8.6
			c0.8,0.7,1,1.3,0.5,2l-2.8,4.3c-0.5,0.5-1.2,0.8-2,0.3c-6.9-4.8-14-7.1-22.2-7.1c-16.1,0-25,10-25,23.1v26.2
			c0,13.2,9.1,23.2,25,23.2c8.7,0,16.6-2.8,24.4-8.4c0.8-0.7,1.5-0.5,2,0.2l2.8,4.1c0.5,0.8,0.5,1.5-0.2,2
			C843.5,636.6,834.4,640.1,823,640.1z"/>
		<path class="st25" d="M900.5,640.1c-22.2,0-35.1-13.3-35.1-31.6v-25c0-18.1,12.9-31.8,35.1-31.8c22.4,0,35.1,13.7,35.1,31.8v25
			C935.6,626.7,922.9,640.1,900.5,640.1z M900.5,632.2c17.6,0,26.4-10,26.4-23.7v-25c0-13.7-8.7-23.7-26.4-23.7
			c-17.3,0-26.2,10-26.2,23.7v25C874.3,622.1,883.2,632.2,900.5,632.2z"/>
		<path class="st25" d="M961.3,638.2c-0.8,0-1.5-0.5-1.5-1.3v-77.3c0-0.7,0.3-1.3,1.2-1.6c9.1-4,19.6-6.4,30.6-6.4
			c21.9,0,35.8,10.9,35.8,34.3v51.1c0,0.8-0.5,1.3-1.3,1.3h-5.9c-0.8,0-1.5-0.5-1.5-1.3v-50.7c0-18.5-9.7-26.5-27-26.5
			c-8.2,0-16.6,1.6-23.1,4v73.3c0,0.8-0.5,1.3-1.3,1.3H961.3z"/>
		<path class="st25" d="M1079.6,526.6c-12.2,0-18.6,7.6-18.6,20.3v6.9h26.4c0.8,0,1.3,0.7,1.3,1.5v5.1c0,0.8-0.5,1.3-1.3,1.3H1061
			v75.3c0,0.8-0.5,1.3-1.3,1.3h-5.9c-0.8,0-1.5-0.5-1.5-1.3v-90c0-18.1,10.7-28.3,26.4-28.3c2.6,0,6.8,0.2,9.9,0.7
			c1,0.2,1.3,0.7,1.3,1.5v4.9c0,0.8-0.5,1.3-1.3,1.3C1085.5,526.7,1081.9,526.6,1079.6,526.6z"/>
		<path class="st25" d="M1114.6,535.9c-3.5,0-5.9-2.5-5.9-5.8c0-3.5,2.5-5.9,5.9-5.9c3.3,0,5.8,2.5,5.8,5.9
			C1120.4,533.5,1117.9,535.9,1114.6,535.9z M1111.5,638.2c-0.8,0-1.3-0.5-1.3-1.3v-82c0-1,0.5-1.5,1.3-1.5h6.1
			c0.8,0,1.3,0.5,1.3,1.5v82c0,0.8-0.5,1.3-1.3,1.3H1111.5z"/>
		<path class="st25" d="M1177.4,671.2c-12.9,0-22.7-4.6-31.3-12.4c-0.7-0.5-0.7-1.2-0.2-2l3-4.3c0.5-0.7,1.2-0.8,1.8-0.2
			c7.2,6.3,15.5,10.9,26.7,10.9c17.1,0,24.7-9.1,24.5-25.2v-8.2c-6.9,3.3-15.7,5.4-23.6,5.4c-20.8,0-35.1-10.9-35.1-33.1v-17.3
			c0-23.6,15-33.3,35.8-33.3c10.5,0,22.1,2.5,30.5,6.1c0.8,0.3,1.2,1,1.2,1.6v79.4C1210.7,658,1200.7,671.2,1177.4,671.2z
			 M1178.9,627.4c8.4,0,17-2.3,23.1-5.8v-58.3c-6.1-2.1-15.8-3.6-23.1-3.6c-16.6,0-26.7,7.4-26.7,25.2v17.3
			C1152.2,620.1,1162.9,627.4,1178.9,627.4z"/>
		<path class="st25" d="M1300.3,553.4c0.8,0,1.3,0.5,1.3,1.5V632c0,0.7-0.3,1.3-1,1.6c-8.9,3.9-19.3,6.4-30.1,6.4
			c-21.4,0-35.1-10.9-35.1-34.3v-50.9c0-1,0.5-1.5,1.3-1.5h5.9c1,0,1.5,0.5,1.5,1.5v50.7c0,18.3,9.6,26.5,26.4,26.5
			c8.1,0,16.1-1.8,22.4-4.1v-73.1c0-1,0.5-1.5,1.5-1.5H1300.3z"/>
		<path class="st25" d="M1327.7,638.2c-0.8,0-1.5-0.5-1.5-1.3v-77.8c0-0.7,0.3-1.3,1.2-1.6c8.1-3.8,18.3-5.9,27.8-5.9
			c5.4,0,11.2,0.7,16.8,1.5c1,0.2,1.3,0.7,1.3,1.5v5.1c0,0.8-0.7,1.3-1.5,1.2c-4.9-0.8-10.5-1.3-15.7-1.3c-7.6,0-15.3,1.5-21.3,4
			v73.5c0,0.8-0.5,1.3-1.3,1.3H1327.7z"/>
		<path class="st25" d="M1418.4,551.6c20.4,0,31.5,11.4,31.5,31.1v50.1c0,0.7-0.3,1.3-1.2,1.6c-7.2,2.8-18.5,5.6-30.6,5.6
			c-18.9,0-34.6-8.9-34.6-26.7c0-17,13.3-26,34.6-26c8.4,0,16.8,1.5,23.1,2.6v-7.1c0-14.7-6.4-23.2-23.1-23.2
			c-9.9,0-19.1,3-25.2,6.8c-0.7,0.5-1.3,0.3-1.8-0.3l-2.8-4.3c-0.5-0.7-0.5-1.3,0-1.6C1395.5,555.1,1406,551.6,1418.4,551.6z
			 M1418,632.2c9.2,0,17.3-2,23.1-4v-30.6c-6.1-1.3-14.8-2.5-23.1-2.5c-17.1,0-25.7,6.6-25.7,18.3
			C1392.3,625.2,1403,632.2,1418,632.2z"/>
		<path class="st25" d="M1501.4,631.8c2.1,0,5.9-0.2,9.1-0.3c0.8-0.2,1.3,0.3,1.3,1.3v5.3c0,0.8-0.3,1.3-1.3,1.5
			c-3,0.3-7.1,0.5-9.4,0.5c-16.1,0-26.7-9.7-26.7-28v-78.4c0-0.8,0.5-1.3,1.3-1.3h5.3c0.8,0,1.3,0.5,1.5,1.3l0.5,20.1h25.2
			c0.8,0,1.3,0.7,1.3,1.5v5.1c0,0.8-0.5,1.3-1.3,1.3h-25.1v50.1C1483.1,624.2,1489.4,631.8,1501.4,631.8z"/>
		<path class="st25" d="M1563.8,640.1c-22.2,0-35.1-13.3-35.1-31.6v-25c0-18.1,12.9-31.8,35.1-31.8c22.4,0,35.1,13.7,35.1,31.8v25
			C1598.9,626.7,1586.2,640.1,1563.8,640.1z M1563.8,632.2c17.6,0,26.4-10,26.4-23.7v-25c0-13.7-8.7-23.7-26.4-23.7
			c-17.3,0-26.2,10-26.2,23.7v25C1537.6,622.1,1546.5,632.2,1563.8,632.2z"/>
		<path class="st25" d="M1625.3,638.2c-0.8,0-1.5-0.5-1.5-1.3v-77.8c0-0.7,0.3-1.3,1.2-1.6c8.1-3.8,18.3-5.9,27.8-5.9
			c5.4,0,11.2,0.7,16.8,1.5c1,0.2,1.3,0.7,1.3,1.5v5.1c0,0.8-0.7,1.3-1.5,1.2c-4.9-0.8-10.5-1.3-15.6-1.3c-7.6,0-15.3,1.5-21.3,4
			v73.5c0,0.8-0.5,1.3-1.3,1.3H1625.3z"/>
		<path class="st25" d="M1714.3,640.1c-11.9,0-22.6-3.6-31.8-10.7c-0.8-0.5-0.8-1.2-0.5-1.8l2.8-4.6c0.5-0.8,1.2-1,2-0.3
			c8.2,6.1,17.5,9.6,27.7,9.6c13.5,0,23.1-5.8,23.1-16.5c0-11.7-12.2-14.2-23.1-16.5c-12.8-2.5-31.1-7.4-31.1-25
			c0-14.8,14-22.6,30.5-22.6c11.4,0,20.3,3.1,28.8,7.9c0.8,0.5,1,1.2,0.5,2l-2.6,4.4c-0.3,0.7-1.2,1-2,0.5c-7.1-4.1-16-6.8-25-6.8
			c-12.9,0-21.6,5.4-21.6,14.5c0,11.4,11.9,14.5,24.2,17.1c14.2,3,30.3,6.6,30.3,24.1C1746.4,630.5,1734.1,640.1,1714.3,640.1z"/>
	</g>
</g>
</svg>
